# xmcd
#
# Track frame offsets:
#	150
#	102331
#	202570
#	269484
#
# Disc length: 4598 seconds
#
# Revision: 2
# Processed by: cddbd v1.5.2PL0 Copyright (c) Steve Scherf et al.
# Submitted via: audiograbber 1.83.01
#
DISCID=2d11f404
DTITLE=Klaus Schulze and Solar Moon - Ultimate Docking [CD 1)
DYEAR=2017
DGENRE=Electronic
TTITLE0=Let The Rain Come
TTITLE1=You Get What....
TTITLE2=Strong
TTITLE3=Sugar Mode
EXTD=
EXTT0=
EXTT1=
EXTT2=
EXTT3=
PLAYORDER=
